<?xml version="1.0" standalone="no"?>
<!DOCTYPE svg PUBLIC "-//W3C//DTD SVG 20010904//EN"
 "http://www.w3.org/TR/2001/REC-SVG-20010904/DTD/svg10.dtd">
<svg version="1.0" xmlns="http://www.w3.org/2000/svg"
 width="672.000000pt" height="480.000000pt" viewBox="0 0 672.000000 480.000000"
 preserveAspectRatio="xMidYMid meet">

<g transform="translate(0.000000,480.000000) scale(0.100000,-0.100000)"
fill="#000000" stroke="none">
<path d="M4196 2859 l-26 -31 0 -308 c0 -290 -1 -309 -17 -303 -10 4 -22 12
-28 19 -7 10 -22 -2 -57 -46 l-47 -60 -12 37 -12 36 -12 -24 c-8 -13 -29 -32
-47 -42 -39 -21 -61 -53 -87 -130 l-19 -53 71 2 c118 5 143 12 172 50 26 34
49 46 39 21 -3 -9 9 -19 35 -29 21 -9 44 -25 50 -36 9 -17 6 -25 -23 -50 -35
-30 -79 -50 -177 -77 l-55 -15 -18 -147 c-15 -118 -17 -179 -12 -323 7 -163 6
-183 -13 -244 -20 -64 -20 -87 0 -172 1 -5 -7 -29 -18 -54 -12 -25 -24 -64
-28 -87 l-7 -43 -615 0 c-547 0 -614 2 -603 15 19 23 -6 2039 -26 2077 -10 19
-25 29 -51 34 -20 4 -257 4 -527 0 -517 -8 -531 -9 -555 -55 -11 -20 -7 -982
6 -1681 4 -212 7 -390 6 -397 0 -7 13 -15 31 -19 17 -4 878 -7 1913 -8 1464 0
1885 2 1895 12 9 9 8 12 -7 12 -17 0 -17 1 1 21 18 21 19 52 19 1039 -1 1095
1 1055 -52 1079 -16 8 -184 11 -543 11 l-518 0 -26 -31z m1074 -968 l0 -828
-510 -2 -510 -2 0 234 c0 186 3 242 15 270 17 42 21 207 5 237 -7 13 -5 55 5
136 16 117 14 157 -10 204 -8 17 -14 114 -19 303 l-7 277 516 0 515 0 0 -829z
m-2716 192 c7 -749 9 -1024 4 -1027 -2 -2 -231 -6 -509 -9 l-507 -7 -6 658
c-3 361 -8 735 -10 829 l-4 173 257 3 c141 1 371 3 512 5 l256 2 7 -627z
m1643 -1315 c15 -17 14 -18 -19 -18 l-36 0 -11 78 c-6 42 -12 151 -13 242 -3
152 -1 171 21 235 13 39 26 75 30 80 3 6 7 -127 9 -294 2 -266 4 -307 19 -323z"/>
<path d="M1700 2675 c0 -5 10 -21 21 -35 13 -17 17 -18 10 -5 -17 33 -31 51
-31 40z"/>
<path d="M1770 2560 c6 -11 13 -20 16 -20 2 0 0 9 -6 20 -6 11 -13 20 -16 20
-2 0 0 -9 6 -20z"/>
<path d="M1841 2575 c0 -5 8 -26 19 -45 11 -19 19 -30 19 -25 0 6 -8 26 -19
45 -11 19 -19 31 -19 25z"/>
<path d="M2032 2548 c-2 -34 -5 -38 -29 -38 -16 0 -44 -4 -63 -10 -19 -5 -39
-10 -45 -11 -5 -1 -18 -7 -29 -14 -10 -8 -24 -11 -31 -9 -7 3 -36 -18 -64 -46
-50 -51 -52 -52 -76 -36 -13 9 -28 16 -32 16 -4 0 9 -11 30 -25 41 -29 42 -30
22 -65 -17 -29 -20 -19 -4 12 6 11 8 22 5 25 -3 4 -13 -10 -21 -30 -17 -41
-20 -59 -5 -37 8 13 10 13 10 -1 0 -24 -8 -27 -48 -18 -20 4 -38 6 -41 4 -2
-3 10 -8 27 -11 18 -4 32 -10 32 -14 0 -24 -13 -37 -33 -34 -22 5 -22 4 1 -5
24 -11 29 -27 10 -34 -10 -4 -10 -6 0 -6 6 -1 12 -14 12 -30 0 -16 -6 -32 -12
-34 -7 -3 -1 -6 15 -6 15 -1 27 -7 28 -13 2 -33 10 -54 39 -101 30 -48 30 -50
13 -71 -10 -11 -11 -15 -3 -9 11 10 17 9 32 -4 15 -13 16 -19 5 -32 -11 -14
-10 -14 6 -2 17 13 17 15 -4 37 l-21 22 26 17 c14 10 26 22 26 28 0 5 -8 3
-18 -6 -26 -23 -28 -22 -57 26 -30 52 -31 63 -6 70 14 3 23 -3 31 -24 7 -15
19 -34 28 -41 11 -9 9 -1 -6 26 -13 21 -20 41 -17 45 6 6 13 -4 46 -61 l16
-28 19 23 c13 14 14 17 3 9 -13 -10 -18 -10 -26 0 -18 22 -43 76 -43 93 0 26
30 16 48 -16 9 -17 27 -44 39 -59 20 -24 21 -29 8 -40 -8 -7 -15 -18 -15 -24
0 -6 7 -3 14 7 14 18 16 18 40 2 30 -20 29 -16 16 -49 l-9 -25 -39 22 c-34 18
-42 19 -56 8 -9 -7 -16 -19 -16 -25 0 -6 7 -3 15 8 13 17 16 17 72 -10 51 -25
69 -29 146 -29 49 1 87 -3 87 -9 0 -5 2 -7 5 -4 3 3 3 12 0 20 -5 12 -15 14
-53 6 -49 -9 -117 -4 -142 12 -10 6 10 7 55 3 87 -7 141 7 200 53 45 34 48 34
71 19 31 -20 30 -28 -7 -60 -55 -45 -129 -77 -204 -86 l-70 -8 77 4 c60 3 88
9 125 30 58 31 114 82 139 125 12 20 25 30 36 27 10 -3 15 0 12 7 -3 7 2 30
10 53 l14 41 -39 6 c-28 5 -37 10 -33 21 9 22 61 19 67 -2 4 -16 5 -16 6 -1 1
12 12 18 39 21 l37 4 -37 1 c-36 2 -38 4 -39 35 0 17 -4 41 -9 52 -5 13 -6 0
-3 -32 l6 -53 -39 0 c-37 0 -40 -2 -42 -30 -3 -37 -21 -85 -28 -77 -4 3 -1 20
5 38 15 43 13 115 -3 162 -8 21 -10 37 -4 37 5 0 12 -9 15 -20 6 -24 0 -24 84
1 73 22 92 37 25 18 -30 -8 -41 -8 -47 3 -14 22 -10 34 16 48 14 7 23 15 20
18 -2 3 -15 -2 -28 -11 -23 -15 -24 -14 -60 34 l-36 49 27 32 26 33 -26 -24
c-26 -23 -48 -22 -48 2 0 7 14 30 30 51 17 22 30 44 30 50 0 6 -16 -13 -35
-42 -20 -28 -38 -52 -40 -52 -2 0 -20 8 -40 17 -27 13 -34 21 -30 37 3 12 -4
3 -14 -19 -11 -22 -20 -48 -20 -57 -1 -24 -13 -28 -54 -21 l-36 5 -4 77 c-1
42 -4 59 -5 39z m-2 -82 c0 -32 -1 -34 -46 -39 -25 -2 -51 -10 -57 -17 -9 -10
-8 -12 6 -6 10 3 36 9 58 12 35 6 39 4 39 -14 0 -16 -11 -23 -52 -33 -29 -7
-58 -12 -65 -12 -7 0 -12 -3 -11 -6 2 -19 -4 -22 -17 -11 -19 16 -19 30 1 30
8 0 12 5 8 11 -4 7 -11 6 -22 -5 -14 -14 -14 -17 1 -34 16 -18 16 -20 2 -32
-9 -8 -25 -31 -36 -52 -16 -32 -24 -38 -47 -36 -24 3 -27 0 -27 -27 0 -23 5
-31 23 -33 14 -2 22 -10 22 -22 0 -12 -8 -20 -22 -22 -18 -2 -22 -8 -20 -27 2
-15 0 -21 -7 -17 -6 4 -11 14 -11 22 0 12 -9 15 -37 12 -35 -3 -38 -1 -41 25
-3 25 -1 27 35 28 30 2 32 3 11 6 -16 2 -28 11 -28 19 0 8 -4 14 -10 14 -12 0
-13 10 -1 28 13 21 61 4 62 -22 1 -20 2 -20 6 -1 8 38 35 105 42 105 3 0 17
-7 29 -16 12 -8 22 -13 22 -10 0 3 -25 22 -56 41 l-57 37 49 49 c27 27 55 47
62 44 7 -3 22 -1 32 5 14 7 20 6 25 -7 4 -12 -4 -26 -27 -45 -39 -33 -30 -37
13 -6 24 18 29 27 24 49 -6 24 -3 28 32 37 21 5 50 10 66 11 24 1 27 -2 27
-33z m194 -7 l48 -30 -22 -24 c-18 -19 -26 -22 -37 -13 -11 9 -11 14 2 28 8 9
15 19 15 23 0 9 -61 40 -66 34 -3 -2 9 -10 26 -17 33 -14 37 -22 16 -39 -10
-9 -20 -9 -40 0 -29 13 -31 21 -16 50 14 25 18 24 74 -12z m-136 -45 c22 -6
30 -28 12 -39 -18 -11 -60 7 -60 26 0 20 10 23 48 13z m62 -4 c0 -5 -2 -10 -4
-10 -3 0 -8 5 -11 10 -3 6 -1 10 4 10 6 0 11 -4 11 -10z m80 -50 c28 -27 50
-54 50 -60 0 -6 -11 -16 -25 -22 -23 -10 -28 -8 -59 28 -25 28 -31 42 -24 52
8 9 15 9 27 1 9 -6 4 0 -11 14 -30 28 -34 37 -18 37 6 0 33 -22 60 -50z m106
-53 c15 -33 16 -40 3 -48 -20 -12 -26 -11 -33 7 -4 9 -1 24 6 32 11 13 10 15
-3 10 -12 -5 -26 5 -47 31 -29 36 -30 39 -14 55 16 16 19 15 44 -16 15 -18 35
-50 44 -71z m-182 80 c18 -13 17 -16 -9 -55 -15 -23 -35 -42 -44 -42 -14 0
-14 -2 -1 -10 9 -6 10 -10 3 -10 -6 0 -14 4 -17 9 -9 15 29 121 44 121 3 0 14
-6 24 -13z m-66 -33 c2 -1 1 -12 -3 -24 -5 -17 -12 -20 -31 -16 -17 5 -24 2
-24 -8 0 -7 -11 -16 -25 -19 -22 -4 -28 1 -39 27 -7 17 -12 33 -10 35 13 15
116 19 132 5z m-128 -53 c0 -12 -6 -9 -21 9 -19 23 -19 23 -9 2 6 -12 8 -27 5
-32 -3 -6 -1 -10 5 -10 18 0 0 -20 -26 -30 -13 -5 -26 -20 -30 -34 -6 -27 -54
-44 -54 -20 0 8 10 15 23 15 16 1 18 2 5 6 -31 8 -20 42 29 94 43 46 48 49 60
33 7 -10 13 -25 13 -33z m-198 -21 c-10 -24 -24 -40 -34 -40 -26 0 -28 13 -8
58 17 38 22 42 39 33 19 -11 19 -12 3 -51z m440 5 c24 -28 23 -62 -2 -70 -12
-4 -27 -2 -34 4 -7 6 -15 9 -17 7 -2 -2 -11 6 -21 18 -15 21 -15 24 4 54 22
35 30 33 70 -13z m-131 3 c0 -7 2 -23 5 -35 4 -26 1 -27 -26 -13 -13 7 -21 7
-25 0 -3 -5 -13 -10 -21 -10 -20 0 -44 -24 -44 -44 0 -9 -4 -16 -10 -16 -15 0
-12 17 7 47 17 26 17 27 -1 20 -19 -7 -19 -7 -3 11 9 10 15 21 11 24 -3 3 9 5
26 3 17 -1 33 -5 37 -9 3 -3 16 -6 27 -6 20 1 20 1 -2 13 -12 7 -19 16 -16 20
12 11 34 8 35 -5z m202 -32 c5 -13 -12 -26 -34 -26 -14 0 -11 28 4 33 20 9 25
8 30 -7z m-158 -16 c10 -11 16 -20 13 -20 -3 0 -13 9 -23 20 -10 11 -16 20
-13 20 3 0 13 -9 23 -20z m-190 -37 c-8 -34 -13 -39 -24 -27 -11 11 4 54 20
54 7 0 9 -10 4 -27z m189 -15 c-3 -5 2 -8 11 -6 10 2 20 -3 22 -9 3 -7 -1 -13
-9 -13 -8 0 -15 -12 -16 -27 -2 -21 1 -24 10 -15 17 17 28 15 28 -6 0 -11 12
-24 28 -31 26 -11 26 -10 7 4 -11 9 -19 23 -17 31 2 8 -2 14 -8 14 -5 0 -10 5
-10 10 0 6 19 10 41 10 l42 0 -6 -36 c-3 -20 -13 -47 -22 -61 -16 -24 -17 -24
-38 -6 -22 18 -22 18 -4 -3 17 -21 17 -22 -21 -48 -39 -27 -91 -46 -125 -46
-14 0 -18 6 -15 28 2 21 9 28 32 30 16 2 32 -2 37 -10 7 -10 9 -10 9 2 0 8 12
24 26 35 15 12 28 34 30 49 2 21 0 25 -10 17 -7 -6 -16 -8 -19 -5 -3 4 -18 -3
-33 -15 -17 -14 -21 -21 -12 -21 9 0 21 7 28 15 12 15 30 12 30 -6 0 -16 -63
-49 -90 -47 -24 1 -24 1 3 5 15 2 27 8 27 12 0 5 -11 6 -25 3 -18 -3 -25 0
-25 11 0 8 -7 17 -15 21 -9 3 -15 0 -15 -9 0 -8 5 -15 11 -15 8 0 9 -15 4 -47
-4 -27 -9 -50 -11 -52 -6 -6 -94 30 -94 38 0 4 9 16 19 25 15 14 24 15 39 7
23 -12 38 9 19 28 -17 17 -19 51 -3 51 8 0 18 -4 21 -10 10 -17 55 -11 83 11
31 24 39 63 18 94 -8 12 -12 26 -8 29 9 9 33 -25 26 -36z m170 26 c3 -9 6 -33
6 -55 0 -32 -3 -39 -20 -39 -23 0 -26 10 -8 28 9 9 9 12 0 12 -13 0 -17 52 -5
63 11 11 20 8 27 -9z m-474 -15 c0 -5 -9 -9 -20 -9 -19 0 -26 11 -14 23 8 8
34 -3 34 -14z m260 1 c11 -11 20 -29 20 -40 0 -27 -35 -60 -62 -60 -12 0 -32
10 -44 21 -19 18 -21 26 -13 48 19 52 64 66 99 31z m99 -25 l0 -20 -9 20 c-5
11 -9 27 -9 35 -1 13 0 13 9 0 5 -8 9 -24 9 -35z m61 26 c0 -5 3 -16 6 -25 5
-13 -1 -16 -25 -16 -24 0 -31 4 -31 19 0 19 12 29 38 30 6 1 12 -3 12 -8z
m-433 -27 c-3 -3 -12 -4 -19 -1 -8 3 -5 6 6 6 11 1 17 -2 13 -5z m83 -37 c0
-16 -9 -28 -25 -35 -29 -13 -35 -7 -28 31 4 20 11 27 29 27 18 0 24 -5 24 -23z
m50 3 c-11 -11 -26 -20 -32 -19 -10 0 -10 2 0 6 6 2 12 11 12 19 0 8 9 14 20
14 l20 0 -20 -20z m29 -36 c-6 -7 -8 -17 -5 -23 3 -5 0 -11 -6 -14 -9 -3 -7
-10 7 -21 20 -17 20 -17 -2 -6 -19 9 -25 7 -35 -10 -13 -21 -38 -28 -38 -10 0
5 9 14 20 20 11 6 20 18 20 26 0 8 5 12 10 9 14 -8 13 8 -1 22 -16 16 11 45
29 31 9 -8 9 -14 1 -24z m-66 -60 c-16 -12 -20 -11 -35 7 -23 27 -23 34 5 46
19 9 24 7 35 -14 12 -22 11 -26 -5 -39z m27 45 c0 -6 -4 -7 -10 -4 -5 3 -10
11 -10 16 0 6 5 7 10 4 6 -3 10 -11 10 -16z m360 4 c0 -27 -14 -43 -29 -34
-17 11 -5 51 15 51 8 0 14 -8 14 -17z m-537 -7 c7 -18 -1 -26 -25 -26 -11 0
-18 7 -18 20 0 23 35 28 43 6z m635 -1 c2 -2 -1 -20 -8 -40 -8 -24 -17 -35
-26 -31 -8 3 -13 2 -12 -2 2 -11 -24 -62 -32 -62 -4 0 -13 7 -20 15 -10 12 -9
19 2 37 8 13 21 40 28 61 11 35 15 38 39 32 14 -4 28 -8 29 -10z m-98 -60 c0
-7 -7 -18 -15 -25 -23 -19 -59 15 -44 41 8 16 13 17 34 7 14 -6 25 -17 25 -23z
m-61 -18 c8 -10 4 -20 -17 -39 -33 -32 -70 -51 -81 -43 -5 3 -11 -1 -13 -7 -5
-13 -150 -19 -162 -7 -10 10 5 40 16 33 16 -10 136 -6 150 5 7 5 29 24 48 40
40 35 44 36 59 18z"/>
<path d="M1970 2250 c0 -5 7 -10 16 -10 8 0 12 5 9 10 -3 6 -10 10 -16 10 -5
0 -9 -4 -9 -10z"/>
<path d="M1956 1983 c-6 -14 -5 -15 5 -6 7 7 10 15 7 18 -3 3 -9 -2 -12 -12z"/>
<path d="M2428 2083 c7 -3 16 -2 19 1 4 3 -2 6 -13 5 -11 0 -14 -3 -6 -6z"/>
<path d="M2335 1910 c10 -11 20 -20 23 -20 3 0 -3 9 -13 20 -10 11 -20 20 -23
20 -3 0 3 -9 13 -20z"/>
<path d="M1818 1858 c7 -9 26 -21 43 -28 23 -10 28 -17 23 -34 -5 -19 -5 -19
7 -4 11 13 22 15 49 10 28 -6 36 -14 41 -37 l7 -30 1 32 c1 28 -3 34 -26 39
-53 11 -55 13 -49 42 5 26 5 26 -6 5 -14 -28 -22 -29 -67 -1 -24 15 -32 17
-23 6z"/>
<path d="M2150 1805 c0 -5 5 -17 10 -25 5 -8 10 -10 10 -5 0 6 -5 17 -10 25
-5 8 -10 11 -10 5z"/>
<path d="M4013 2454 c-40 -17 -53 -41 -51 -91 1 -36 1 -37 5 -6 4 28 9 33 38
39 51 9 89 -7 93 -39 3 -28 16 -35 27 -17 4 6 4 29 0 51 -6 33 -13 43 -43 58
-33 16 -41 17 -69 5z"/>
</g>
</svg>
