<?xml version="1.0" standalone="no"?>
<!DOCTYPE svg PUBLIC "-//W3C//DTD SVG 20010904//EN"
 "http://www.w3.org/TR/2001/REC-SVG-20010904/DTD/svg10.dtd">
<svg version="1.0" xmlns="http://www.w3.org/2000/svg"
 width="640.000000pt" height="640.000000pt" viewBox="0 0 640.000000 640.000000"
 preserveAspectRatio="xMidYMid meet">

<g transform="translate(0.000000,640.000000) scale(0.100000,-0.100000)"
fill="#000000" stroke="none">
<path d="M1375 5847 c-2 -7 -54 -205 -115 -442 -155 -597 -136 -538 -173 -529
-78 19 -77 20 -109 -99 -16 -60 -27 -115 -25 -122 3 -6 19 -15 37 -18 45 -9
80 -47 44 -47 -14 0 -14 -3 -4 -15 10 -12 10 -15 -4 -15 -9 0 -16 -4 -16 -10
0 -5 5 -10 10 -10 6 0 10 -5 10 -11 0 -5 -4 -8 -9 -4 -5 3 -12 1 -16 -5 -3 -5
-1 -10 4 -10 19 0 12 -20 -6 -20 -17 -1 -17 -1 -1 -14 20 -14 14 -28 -8 -19
-8 3 -14 0 -14 -6 0 -6 4 -11 8 -11 16 0 34 -89 27 -130 -6 -37 -10 -41 -31
-37 -20 4 -25 -1 -34 -32 -5 -20 -10 -40 -10 -45 0 -5 -9 -29 -21 -52 -18 -39
-23 -43 -48 -38 -25 5 -30 2 -39 -25 -9 -24 -8 -33 1 -36 47 -15 290 -75 293
-72 2 2 7 17 10 34 5 26 3 31 -19 37 -34 8 -38 42 -15 126 10 36 18 66 18 67
0 2 -9 3 -20 3 -23 0 -24 10 -9 63 5 20 21 44 34 53 14 9 25 23 25 31 0 9 6
13 15 9 8 -3 15 -1 15 4 0 6 -4 10 -10 10 -5 0 -10 5 -10 10 0 6 7 10 16 10
14 0 14 3 4 15 -10 12 -10 15 4 15 9 0 16 5 16 10 0 6 -4 10 -10 10 -18 0 -11
20 8 21 10 0 12 3 5 6 -18 7 -16 23 2 23 8 0 15 5 15 10 0 6 -4 10 -10 10 -22
0 -8 16 15 18 29 2 328 -74 365 -93 64 -33 108 -116 95 -178 -36 -166 -221
-848 -238 -874 -30 -44 -85 -73 -140 -73 -25 0 -107 16 -184 36 -76 20 -212
56 -302 80 -91 24 -168 41 -172 39 -3 -3 -9 -16 -11 -30 -4 -21 12 -41 106
-133 269 -262 498 -373 677 -328 210 54 363 280 469 695 46 178 61 272 67 426
11 290 -63 481 -217 560 -25 12 -137 46 -250 75 -113 29 -209 56 -213 60 -5 4
48 225 118 490 69 266 124 488 122 493 -5 17 -137 48 -142 34z"/>
<path d="M4218 5282 c-15 -97 -43 -275 -62 -394 -20 -120 -33 -226 -30 -235 4
-12 3 -14 -3 -6 -7 9 -21 1 -53 -32 -25 -25 -50 -43 -56 -41 -7 3 -57 -15
-111 -38 l-98 -44 -5 -80 -5 -79 -65 -69 c-131 -140 -258 -312 -319 -432 -25
-50 -136 -430 -128 -438 1 -1 32 0 68 3 l66 5 35 97 c20 53 46 139 58 191 40
175 69 214 289 391 95 77 138 105 147 98 8 -7 35 23 94 108 l83 117 -23 39
-22 40 23 -6 c13 -4 57 -14 97 -24 39 -9 72 -20 72 -23 0 -3 -16 -14 -35 -23
-40 -19 -39 -15 -25 -159 14 -132 17 -148 34 -148 8 0 35 -52 67 -127 115
-280 125 -335 86 -459 -29 -93 -55 -211 -64 -294 l-6 -58 54 -35 c64 -42 52
-58 111 158 42 157 43 163 42 315 0 161 -13 260 -60 459 l-24 105 33 71 34 72
-64 86 c-36 48 -71 87 -78 87 -6 0 -20 29 -30 65 l-17 64 141 383 c77 210 139
383 138 385 -2 1 -68 -118 -147 -265 -188 -349 -177 -331 -201 -325 -20 5 -20
11 -13 339 4 184 5 334 3 334 -2 0 -16 -80 -31 -178z m19 -9 c-3 -10 -5 -2 -5
17 0 19 2 27 5 18 2 -10 2 -26 0 -35z m-7 -248 c0 -183 -3 -225 -14 -225 -7 0
-26 -10 -41 -22 l-28 -22 6 39 c4 22 21 133 39 248 18 114 34 207 35 207 2 0
3 -101 3 -225z m104 -562 c-26 -19 -30 -17 -47 20 -30 65 -30 85 0 101 l28 15
19 -61 c18 -59 18 -62 0 -75z m-103 117 c10 0 19 -11 22 -29 3 -16 9 -40 12
-54 l7 -25 -79 20 c-43 11 -80 22 -82 24 -3 2 11 20 30 40 24 25 40 33 54 30
11 -3 27 -6 36 -6z"/>
<path d="M2495 5173 c-24 -3 -50 -14 -65 -28 -43 -39 -85 -55 -150 -55 -33 0
-77 7 -97 15 -47 20 -156 20 -173 0 -9 -11 -10 -47 -3 -147 l8 -133 64 -3 c57
-3 72 1 135 33 132 66 207 55 258 -40 15 -27 33 -74 39 -102 l12 -53 121 0
121 0 17 71 c32 133 104 208 188 196 64 -8 111 -38 215 -137 168 -160 195
-180 195 -142 0 27 -46 89 -173 236 -195 223 -239 256 -386 282 -71 12 -234
16 -326 7z"/>
<path d="M5324 4271 c18 -36 37 -80 40 -98 16 -72 -34 -160 -109 -194 -51 -23
-89 -23 -140 0 -52 24 -74 50 -123 139 l-39 73 -14 -33 c-19 -44 -17 -163 3
-209 9 -20 32 -55 52 -76 61 -68 60 -130 -7 -413 -19 -80 -85 -358 -146 -618
-133 -568 -139 -584 -266 -665 -96 -62 -145 -195 -112 -308 27 -92 99 -171
175 -194 23 -7 23 -5 -11 62 -19 37 -38 81 -41 96 -16 68 49 174 121 198 49
16 116 6 162 -24 28 -19 50 -48 83 -112 l45 -88 17 48 c32 96 10 202 -62 285
-37 44 -37 45 -36 130 1 73 23 176 152 720 82 349 159 655 170 680 26 59 78
130 96 130 25 0 113 89 137 137 17 37 23 65 23 123 0 58 -6 86 -23 123 -26 53
-102 126 -149 143 l-31 12 33 -67z m74 -6 c52 -44 82 -118 82 -202 0 -119 -40
-188 -142 -248 -36 -21 -81 -39 -107 -42 -65 -7 -157 21 -194 61 -85 90 -117
184 -97 283 l12 57 41 -78 c46 -88 93 -130 158 -141 89 -15 180 41 215 131 21
55 14 100 -26 177 l-30 58 29 -15 c16 -9 42 -27 59 -41z m-537 -2061 c44 -24
99 -85 129 -144 24 -47 32 -149 16 -199 -8 -22 -11 -19 -42 39 -58 110 -113
150 -201 150 -93 0 -180 -79 -190 -173 -4 -37 0 -58 26 -113 17 -36 31 -68 31
-70 0 -11 -58 28 -87 58 -106 111 -101 297 12 396 75 66 120 84 200 79 43 -2
84 -11 106 -23z"/>
<path d="M2630 4235 c-8 -2 -32 -6 -52 -10 -22 -3 -39 -12 -42 -23 -10 -30
-35 -281 -47 -472 -14 -215 -7 -439 17 -560 12 -63 17 -142 18 -300 0 -198 -2
-224 -27 -338 -15 -68 -29 -127 -32 -131 -8 -15 29 -39 78 -52 71 -17 243 -8
293 17 24 12 38 25 36 34 -64 272 -64 274 -69 450 -3 111 0 210 8 270 17 137
22 431 10 589 -23 270 -52 485 -70 503 -15 16 -90 30 -121 23z"/>
<path d="M3990 3465 c0 -3 14 -32 30 -65 45 -89 48 -133 13 -199 -48 -93 -146
-126 -239 -81 -45 22 -75 60 -121 154 l-30 58 -14 -33 c-8 -20 -14 -66 -14
-109 1 -82 22 -138 74 -193 24 -26 26 -35 25 -115 -1 -89 -15 -147 -295 -1207
-55 -207 -73 -242 -185 -350 -105 -101 -126 -140 -127 -230 -1 -147 111 -259
259 -258 199 1 312 191 229 383 -22 51 -29 85 -33 155 -4 80 0 106 33 230 70
267 84 322 190 730 58 226 117 434 130 462 35 77 70 118 129 151 91 52 138
134 139 247 2 115 -51 203 -154 256 -22 11 -39 17 -39 14z m107 -77 c129 -134
84 -374 -82 -444 -19 -7 -36 -18 -40 -24 -9 -15 -127 -12 -176 5 -27 10 -61
33 -88 63 -75 81 -101 169 -81 268 l12 58 42 -79 c25 -49 56 -91 79 -109 35
-28 45 -31 112 -31 67 0 77 3 112 31 46 36 83 105 83 154 0 19 -14 64 -30 98
-17 35 -30 66 -30 68 0 11 58 -28 87 -58z m-610 -2062 c49 -27 69 -49 96 -110
65 -141 12 -296 -120 -351 -20 -8 -64 -15 -100 -15 -143 0 -242 100 -243 245
0 99 34 157 137 230 49 35 166 36 230 1z"/>
<path d="M3246 1210 c-54 -56 -66 -74 -61 -91 4 -11 15 -51 26 -87 10 -36 22
-69 26 -72 5 -4 46 -17 93 -28 l85 -21 68 68 69 68 -22 80 c-13 45 -26 86 -30
93 -5 8 -166 60 -186 60 0 0 -31 -31 -68 -70z m239 8 c4 -4 17 -43 30 -87 l22
-79 -66 -64 -66 -64 -77 20 c-42 12 -80 24 -83 28 -4 4 -17 42 -30 85 l-22 78
64 66 64 65 79 -20 c43 -12 82 -24 85 -28z"/>
<path d="M1988 3052 c-24 -3 -28 -8 -28 -34 0 -17 -7 -55 -16 -84 -17 -52 -17
-52 11 -100 26 -48 28 -58 66 -519 21 -258 43 -501 48 -540 l10 -70 -4 75 c-4
71 -58 768 -70 895 -4 37 -2 55 3 46 8 -11 10 -11 14 0 7 19 15 -51 38 -346
11 -137 24 -299 29 -360 23 -259 24 -277 10 -286 -11 -7 -10 -9 5 -9 18 0 18
6 12 103 -7 109 -30 391 -46 572 -33 378 -33 386 -12 446 l20 56 -28 52 c-16
29 -30 64 -32 79 -3 23 -7 27 -30 24z"/>
<path d="M2219 1656 c-2 -2 -56 -7 -119 -11 -63 -4 -117 -9 -120 -12 -6 -5 -1
-127 6 -166 6 -28 6 -28 20 -9 20 29 63 41 142 39 53 -2 75 -7 91 -21 l21 -19
-5 44 c-2 24 -7 70 -10 102 -6 51 -13 66 -26 53z"/>
<path d="M2238 1408 c-4 -10 45 -651 51 -665 1 -2 7 -3 15 -3 18 0 25 27 15
60 -4 14 -17 153 -29 310 -15 189 -26 289 -35 298 -10 11 -13 11 -17 0z"/>
<path d="M2034 1385 c-6 -16 43 -632 52 -646 8 -14 51 -11 57 5 9 22 -44 629
-55 644 -14 17 -47 15 -54 -3z"/>
<path d="M1982 1230 c0 -14 2 -19 5 -12 2 6 2 18 0 25 -3 6 -5 1 -5 -13z"/>
<path d="M2291 1224 c0 -11 3 -14 6 -6 3 7 2 16 -1 19 -3 4 -6 -2 -5 -13z"/>
<path d="M2002 990 c0 -14 2 -19 5 -12 2 6 2 18 0 25 -3 6 -5 1 -5 -13z"/>
<path d="M2311 984 c0 -11 3 -14 6 -6 3 7 2 16 -1 19 -3 4 -6 -2 -5 -13z"/>
<path d="M2289 713 c-13 -16 -12 -17 4 -4 9 7 17 15 17 17 0 8 -8 3 -21 -13z"/>
<path d="M2128 673 c12 -2 30 -2 40 0 9 3 -1 5 -23 4 -22 0 -30 -2 -17 -4z"/>
</g>
</svg>
